<?xml version="1.0" encoding="utf-8"?>
<!-- Generated by IcoMoon.io -->
<!DOCTYPE svg PUBLIC "-//W3C//DTD SVG 1.1//EN" "http://www.w3.org/Graphics/SVG/1.1/DTD/svg11.dtd">
<svg version="1.1" xmlns="http://www.w3.org/2000/svg" xmlns:xlink="http://www.w3.org/1999/xlink" width="49" height="41" viewBox="0 0 49 41">
<g id="icomoon-ignore">
</g>
<path d="M22.55 0h9.65c-1.46 1.070-2.83 2.25-4.26 3.35-2.94 0.050-5.98 0.36-8.52 1.99-3.85 2-6.14 5.86-9.47 8.47-1.48 0.25-2.96 0.42-4.46 0.53 2.73-7.47 9.97-11.75 17.060-14.34z" fill="#000000"></path>
<path d="M35.070 1.15c3.32 2.17 7 4.030 9.43 7.28 2.86 3.54 4.17 8.1 4.15 12.61 0.030 6.070-0.010 12.14 0 18.21-0.94-0.040-2.83-0.12-3.78-0.16-1.020-1.4-1.2-3.28-2.13-4.76-0.95-2-2.83-3.88-2.35-6.27 0.49-4.64 1.76-9.38 0.52-14.010-0.62-2.45-2.34-4.37-3.57-6.52-0.55-2.2-1.21-4.37-2.27-6.38z" fill="#000000"></path>
<path d="M34.32 1.84c0.52 1.37 1.050 2.76 1.26 4.23 0.29 2.66 2.43 4.58 3.24 7.060 1.97 5.18-0.46 10.59-0.46 15.88-1.11-0.98-2.19-1.99-3.23-3.040 0.87-4.56 2.29-9.24 1.48-13.91-0.81-3.5-4.14-5.29-6.44-7.69 1.35 0.74 2.72 1.46 4.070 2.21 0.020-1.18 0.060-3.56 0.080-4.74z" fill="#000000"></path>
<path d="M0.43 21.94c-0.95-2.28 1.15-4.61 3.43-4.66 6.88-0.54 13.69 1.25 20.26 3.11l-3.24 0.54c4.050 2.020 8.46 3.35 12.15 6.060 3.67 2.58 7.92 5.45 9.070 10.070 0.75 2.27-1.61 3.45-3.38 3.94h-3.23c-9-1-17.44-4.77-25.19-9.29-3.84-2.55-8.11-5.3-9.87-9.77zM8.070 19.85c-2.29 0.62-4.070 3.47-2.42 5.57 3.1 4.66 8.42 7.19 13.38 9.39 4.74 1.86 9.77 3.96 14.97 3.35 2.91-0.37 3.76-4.17 1.76-6.11-5.12-6.24-13.14-9.22-20.85-10.78 1.95-0.12 3.9-0.070 5.85 0.15-0.44-0.38-1.31-1.14-1.75-1.53-3.59-0.61-7.42-1.21-10.94-0.040z" fill="#000000"></path>
<path d="M6.67 23.86c1.47-1.38 3.43-2.090 5.44-1.61 7.040 1.14 14 3.58 19.86 7.72 1.55 1.2 3.55 2.86 2.98 5.090-1.18 2.16-3.91 1.82-5.96 1.54-6.45-1.040-12.35-4.2-17.71-7.82-1.93-1.23-3.38-3.030-4.61-4.92zM21.37 26.1c-1.68 4.44 2.29 8.42 6.64 8.16 1.63-0.38 4.78-0.72 4.040-3.1-1.78 1-3.59 2.010-5.69 2.060 0.96-1.11 1.93-2.21 2.93-3.27-2.46-1.6-5.17-2.82-7.92-3.85z" fill="#000000"></path>
<path d="M3.51 28.86c4.9 4.55 10.88 7.6 16.92 10.34-5.63 0-11.25-0.030-16.87 0.030 0.020-3.46 0.020-6.92-0.050-10.37z" fill="#000000"></path>
</svg>
