<?xml version="1.0" encoding="utf-8"?>
<!-- Generated by IcoMoon.io -->
<!DOCTYPE svg PUBLIC "-//W3C//DTD SVG 1.1//EN" "http://www.w3.org/Graphics/SVG/1.1/DTD/svg11.dtd">
<svg version="1.1" xmlns="http://www.w3.org/2000/svg" xmlns:xlink="http://www.w3.org/1999/xlink" width="41" height="41" viewBox="0 0 41 41">
<g id="icomoon-ignore">
</g>
<path d="M30.067 20.5c-1.367 0-4.1 2.733-9.567 2.733s-8.2-2.733-9.567-2.733c-1.509 0-2.733 1.225-2.733 2.733 0 1.367 0.776 2.024 1.367 2.37 1.62 0.947 6.833 3.097 6.833 3.097l-5.808 7.432c0 0-1.025 1.278-1.025 2.135 0 1.509 1.225 2.733 2.733 2.733 1.395 0 2.028-0.897 2.028-0.897s6.162-7.313 6.172-7.303c0.010-0.010 6.172 7.303 6.172 7.303s0.633 0.897 2.028 0.897c1.509 0 2.733-1.225 2.733-2.733 0-0.857-1.025-2.135-1.025-2.135l-5.808-7.432c0 0 5.214-2.15 6.833-3.097 0.59-0.346 1.367-1.003 1.367-2.37 0-1.509-1.225-2.733-2.733-2.733z" fill="#000000"></path>
<path d="M20.5 0c-5.284 0-9.567 4.283-9.567 9.567s4.283 9.567 9.567 9.567c5.282 0 9.567-4.283 9.567-9.567s-4.285-9.567-9.567-9.567zM20.5 14.35c-2.642 0-4.783-2.14-4.783-4.783 0-2.642 2.142-4.783 4.783-4.783 2.64 0 4.783 2.142 4.783 4.783 0 2.643-2.143 4.783-4.783 4.783z" fill="#000000"></path>
</svg>
