<?xml version="1.0" encoding="utf-8"?>
<!-- Generated by IcoMoon.io -->
<!DOCTYPE svg PUBLIC "-//W3C//DTD SVG 1.1//EN" "http://www.w3.org/Graphics/SVG/1.1/DTD/svg11.dtd">
<svg version="1.1" xmlns="http://www.w3.org/2000/svg" xmlns:xlink="http://www.w3.org/1999/xlink" width="41" height="41" viewBox="0 0 41 41">
<g id="icomoon-ignore">
</g>
<path d="M37.691 6.18c-0.739 0.739-1.934 0.743-2.669 0.008-0.736-0.736-0.731-1.93 0.007-2.67 0.74-0.737 1.934-0.741 2.669-0.006s0.731 1.929-0.007 2.668zM40.132 0.548c-0.46-0.458-1.1-0.629-1.696-0.512l-0.006-0.006-12.323 1.11-25.555 25.556c-0.733 0.74-0.735 1.929-0.004 2.66l-0.006 0.006 10.758 10.757c0.002 0.004 0.004 0.006 0.006 0.007 0.734 0.734 1.928 0.729 2.667-0.010l0.019 0.019 25.557-25.556 1.11-12.324-0.013-0.012c0.117-0.594-0.053-1.235-0.513-1.695z" fill="#000000"></path>
</svg>
