<?xml version="1.0" encoding="utf-8"?>
<!-- Generated by IcoMoon.io -->
<!DOCTYPE svg PUBLIC "-//W3C//DTD SVG 1.1//EN" "http://www.w3.org/Graphics/SVG/1.1/DTD/svg11.dtd">
<svg version="1.1" xmlns="http://www.w3.org/2000/svg" xmlns:xlink="http://www.w3.org/1999/xlink" width="56" height="41" viewBox="0 0 56 41">
<g id="icomoon-ignore">
</g>
<path d="M24.754 0.666c5.842-0.922 11.736 1.025 16.656 4.049 5.74 3.639 11.019 8.559 13.94 14.811 0.666 3.28-1.845 5.74-3.741 7.995-5.381 6.304-12.505 11.736-20.91 12.915-3.793 0.307-7.688 0.051-11.224-1.486-8.251-3.536-15.375-9.994-19.475-18.040v-0.307c4.715-9.789 14.043-17.63 24.754-19.936zM26.291 5.842c-8.815 0.717-15.324 10.353-12.505 18.809 1.64 7.175 9.635 11.941 16.81 10.506 4.305-0.922 8.303-3.588 10.404-7.483 2.101-4.254 2.409-9.635 0-13.838-2.46-5.433-8.815-8.764-14.709-7.995z" fill="#000000"></path>
<path d="M27.777 12.505c3.229 0.103 6.867 2.050 7.687 5.381 1.538 4.049-0.922 9.379-5.227 10.301-3.587 1.486-7.739-0.615-9.43-3.946-3.075-5.074 1.281-11.736 6.97-11.736z" fill="#000000"></path>
</svg>
