<?xml version="1.0" encoding="utf-8"?>
<!-- Generated by IcoMoon.io -->
<!DOCTYPE svg PUBLIC "-//W3C//DTD SVG 1.1//EN" "http://www.w3.org/Graphics/SVG/1.1/DTD/svg11.dtd">
<svg version="1.1" xmlns="http://www.w3.org/2000/svg" xmlns:xlink="http://www.w3.org/1999/xlink" width="41" height="41" viewBox="0 0 41 41">
<g id="icomoon-ignore">
</g>
<path d="M0 0h41v41h-41v-41zM6.833 6.833c0 9.123 0 18.211 0 27.333h3.383c0.034-2.563 0.034-7.688 0.068-10.25 6.799 0 13.633 0 20.432 0 0.034 2.563 0.034 7.688 0.068 10.25h3.383c0-9.123 0-18.211 0-27.333h-3.383c-0.034 2.563-0.034 7.688-0.034 10.25-6.833 0-13.667 0-20.466 0-0.034-2.563-0.034-7.688-0.068-10.25h-3.383zM13.667 6.833c0 1.708 0 5.125 0 6.833 4.544 0 9.123 0 13.667 0 0-1.708 0-5.125 0-6.833-4.544 0-9.122 0-13.667 0z" fill="#000000"></path>
</svg>
