<?xml version="1.0" encoding="utf-8"?>
<!-- Generated by IcoMoon.io -->
<!DOCTYPE svg PUBLIC "-//W3C//DTD SVG 1.1//EN" "http://www.w3.org/Graphics/SVG/1.1/DTD/svg11.dtd">
<svg version="1.1" xmlns="http://www.w3.org/2000/svg" xmlns:xlink="http://www.w3.org/1999/xlink" width="41" height="41" viewBox="0 0 41 41">
<g id="icomoon-ignore">
</g>
<path d="M24.112 26.591l2.565-2.565 5.129 5.129-2.565 2.565-5.129-5.129z" fill="#000000"></path>
<path d="M39.896 34.535c1.104 1.104 1.104 2.996 0 4.1l-1.419 1.419c-1.104 1.104-2.996 1.104-4.1 0l-7.254-7.254c-1.104-1.104-1.104-2.996 0-4.1l1.419-1.419c1.104-1.104 2.996-1.104 4.1 0l7.254 7.254z" fill="#000000"></path>
<path d="M15.769 0.315c-8.515 0-15.454 6.938-15.454 15.454s6.938 15.454 15.454 15.454 15.454-6.938 15.454-15.454-6.938-15.454-15.454-15.454zM15.769 28.385c-6.938 0-12.615-5.677-12.615-12.615s5.677-12.615 12.615-12.615 12.615 5.677 12.615 12.615-5.677 12.615-12.615 12.615z" fill="#000000"></path>
</svg>
