<?xml version="1.0" encoding="utf-8"?>
<!-- Generated by IcoMoon.io -->
<!DOCTYPE svg PUBLIC "-//W3C//DTD SVG 1.1//EN" "http://www.w3.org/Graphics/SVG/1.1/DTD/svg11.dtd">
<svg version="1.1" xmlns="http://www.w3.org/2000/svg" xmlns:xlink="http://www.w3.org/1999/xlink" width="37" height="41" viewBox="0 0 37 41">
<g id="icomoon-ignore">
</g>
<path d="M30.559 31.995c1.374-1.709 2.062-3.65 2.062-5.823 0-3.632-2.781-6.169-6.676-7.084 1.676-0.443 2.936-0.931 3.781-2.111s1.267-2.5 1.267-3.959c0-2.002-0.728-3.213-2.182-4.772s-3.77-2.338-6.944-2.338h-13.659v29.277h14.33c4.497 0 6.647-1.481 8.021-3.19zM15.802 11.699h3.418c2.057 0 3.087 0.745 3.087 2.375 0 0.601-0.22 1.73-0.661 2.259s-1.198 0.793-2.271 0.793h-3.572v-5.427zM15.762 28.665v-5.319h4.189c1.352 0 2.282 0.282 2.789 0.847s0.761 1.183 0.761 1.855c0 0.672-0.261 1.276-0.783 1.812s-1.342 0.805-2.458 0.805h-4.498z" fill="#000000"></path>
<path d="M40.805-2.401h-40.357c-1.555 0-2.816 1.261-2.816 2.816v40.357c0 1.555 1.261 2.816 2.816 2.816h40.357c1.555 0 2.816-1.261 2.816-2.816v-40.357c0-1.555-1.261-2.816-2.816-2.816zM42.682 40.773c0 1.035-0.842 1.877-1.877 1.877h-40.357c-1.035 0-1.877-0.842-1.877-1.877v-40.358c0-1.035 0.842-1.877 1.877-1.877h40.357c1.035 0 1.877 0.842 1.877 1.877v40.358z" fill="#000000"></path>
</svg>
